<svg width="449" height="19" viewBox="0 0 449 19" fill="none" xmlns="http://www.w3.org/2000/svg">
<path opacity="0.85" d="M0.356889 4.09091H2.22656L5.07635 9.05007H5.19354L8.04332 4.09091H9.913L5.95526 10.7173V15H4.31463V10.7173L0.356889 4.09091ZM13.2129 15.1651C12.4459 15.1651 11.7765 14.9893 11.2048 14.6378C10.633 14.2862 10.1892 13.7944 9.8731 13.1623C9.55705 12.5302 9.39902 11.7915 9.39902 10.9464C9.39902 10.0977 9.55705 9.35547 9.8731 8.71982C10.1892 8.08416 10.633 7.59055 11.2048 7.23899C11.7765 6.88743 12.4459 6.71165 13.2129 6.71165C13.98 6.71165 14.6494 6.88743 15.2211 7.23899C15.7928 7.59055 16.2367 8.08416 16.5528 8.71982C16.8688 9.35547 17.0269 10.0977 17.0269 10.9464C17.0269 11.7915 16.8688 12.5302 16.5528 13.1623C16.2367 13.7944 15.7928 14.2862 15.2211 14.6378C14.6494 14.9893 13.98 15.1651 13.2129 15.1651ZM13.2183 13.8281C13.7154 13.8281 14.1274 13.6967 14.4541 13.4339C14.7808 13.1712 15.0222 12.8214 15.1785 12.3846C15.3383 11.9478 15.4182 11.4666 15.4182 10.9411C15.4182 10.419 15.3383 9.93963 15.1785 9.50284C15.0222 9.0625 14.7808 8.70916 14.4541 8.44283C14.1274 8.17649 13.7154 8.04332 13.2183 8.04332C12.7176 8.04332 12.3021 8.17649 11.9718 8.44283C11.6451 8.70916 11.4019 9.0625 11.2421 9.50284C11.0858 9.93963 11.0077 10.419 11.0077 10.9411C11.0077 11.4666 11.0858 11.9478 11.2421 12.3846C11.4019 12.8214 11.6451 13.1712 11.9718 13.4339C12.3021 13.6967 12.7176 13.8281 13.2183 13.8281ZM23.7625 11.6069V6.81818H25.3605V15H23.7945V13.5831H23.7093C23.5211 14.0199 23.2192 14.3839 22.8037 14.6751C22.3918 14.9627 21.8787 15.1065 21.2643 15.1065C20.7387 15.1065 20.2735 14.9911 19.8687 14.7603C19.4674 14.5259 19.1514 14.1797 18.9206 13.7216C18.6933 13.2635 18.5797 12.6971 18.5797 12.0224V6.81818H20.1723V11.8306C20.1723 12.3881 20.3268 12.832 20.6358 13.1623C20.9447 13.4925 21.346 13.6577 21.8396 13.6577C22.1379 13.6577 22.4344 13.5831 22.7292 13.4339C23.0274 13.2848 23.2743 13.0593 23.4696 12.7575C23.6684 12.4556 23.7661 12.0721 23.7625 11.6069ZM27.2756 15V6.81818H28.815V8.1179H28.9002C29.0493 7.67756 29.3121 7.33132 29.6885 7.07919C30.0685 6.82351 30.4982 6.69567 30.9776 6.69567C31.077 6.69567 31.1942 6.69922 31.3292 6.70632C31.4677 6.71342 31.576 6.7223 31.6541 6.73295V8.25639C31.5902 8.23864 31.4765 8.21911 31.3132 8.1978C31.1498 8.17294 30.9865 8.16051 30.8231 8.16051C30.4467 8.16051 30.1111 8.24041 29.8164 8.40021C29.5252 8.55646 29.2944 8.77486 29.1239 9.0554C28.9535 9.33239 28.8682 9.64844 28.8682 10.0036V15H27.2756ZM36.142 5.50781V4.09091H44.5848V5.50781H41.181V15H39.5404V5.50781H36.142ZM45.248 15V6.81818H46.7874V8.1179H46.8727C47.0218 7.67756 47.2846 7.33132 47.661 7.07919C48.041 6.82351 48.4707 6.69567 48.9501 6.69567C49.0495 6.69567 49.1667 6.69922 49.3016 6.70632C49.4401 6.71342 49.5484 6.7223 49.6266 6.73295V8.25639C49.5626 8.23864 49.449 8.21911 49.2857 8.1978C49.1223 8.17294 48.959 8.16051 48.7956 8.16051C48.4192 8.16051 48.0836 8.24041 47.7889 8.40021C47.4977 8.55646 47.2668 8.77486 47.0964 9.0554C46.9259 9.33239 46.8407 9.64844 46.8407 10.0036V15H45.248ZM55.9627 11.6069V6.81818H57.5607V15H55.9947V13.5831H55.9095C55.7213 14.0199 55.4194 14.3839 55.0039 14.6751C54.592 14.9627 54.0789 15.1065 53.4645 15.1065C52.9389 15.1065 52.4737 14.9911 52.0689 14.7603C51.6676 14.5259 51.3516 14.1797 51.1208 13.7216C50.8935 13.2635 50.7798 12.6971 50.7798 12.0224V6.81818H52.3725V11.8306C52.3725 12.3881 52.527 12.832 52.836 13.1623C53.1449 13.4925 53.5462 13.6577 54.0398 13.6577C54.3381 13.6577 54.6346 13.5831 54.9293 13.4339C55.2276 13.2848 55.4744 13.0593 55.6698 12.7575C55.8686 12.4556 55.9663 12.0721 55.9627 11.6069ZM62.9221 15.1651C62.1302 15.1651 61.4484 14.9858 60.8767 14.6271C60.3085 14.2649 59.8717 13.766 59.5663 13.1303C59.2609 12.4947 59.1082 11.7667 59.1082 10.9464C59.1082 10.1154 59.2645 9.3821 59.577 8.74645C59.8895 8.10724 60.3298 7.60831 60.898 7.24964C61.4662 6.89098 62.1355 6.71165 62.9061 6.71165C63.5276 6.71165 64.0816 6.82706 64.5681 7.05788C65.0546 7.28516 65.447 7.60476 65.7453 8.01669C66.0471 8.42862 66.2265 8.9098 66.2833 9.46023H64.7332C64.648 9.0767 64.4527 8.74645 64.1473 8.46946C63.8454 8.19247 63.4406 8.05398 62.9328 8.05398C62.4889 8.05398 62.1 8.17116 61.7662 8.40554C61.436 8.63636 61.1785 8.96662 60.9939 9.39631C60.8092 9.82244 60.7169 10.3267 60.7169 10.9091C60.7169 11.5057 60.8074 12.0206 60.9885 12.4538C61.1696 12.8871 61.4253 13.2227 61.7556 13.4606C62.0894 13.6985 62.4818 13.8175 62.9328 13.8175C63.2346 13.8175 63.5081 13.7624 63.7531 13.6523C64.0017 13.5387 64.2094 13.3771 64.3763 13.1676C64.5468 12.9581 64.6657 12.706 64.7332 12.4112H66.2833C66.2265 12.9403 66.0542 13.4126 65.7666 13.8281C65.4789 14.2436 65.0936 14.5703 64.6107 14.8082C64.1313 15.0462 63.5684 15.1651 62.9221 15.1651ZM69.2263 12.2248L69.2157 10.2805H69.4927L72.7526 6.81818H74.6596L70.9415 10.7599H70.6912L69.2263 12.2248ZM67.7615 15V4.09091H69.3542V15H67.7615ZM72.9284 15L69.9987 11.1115L71.096 9.99822L74.8833 15H72.9284ZM75.8861 15V6.81818H77.4788V15H75.8861ZM76.6904 5.55575C76.4134 5.55575 76.1755 5.46342 75.9767 5.27876C75.7813 5.09055 75.6837 4.86683 75.6837 4.6076C75.6837 4.34482 75.7813 4.12109 75.9767 3.93643C76.1755 3.74822 76.4134 3.65412 76.6904 3.65412C76.9674 3.65412 77.2036 3.74822 77.3989 3.93643C77.5977 4.12109 77.6972 4.34482 77.6972 4.6076C77.6972 4.86683 77.5977 5.09055 77.3989 5.27876C77.2036 5.46342 76.9674 5.55575 76.6904 5.55575ZM80.9891 10.142V15H79.3965V6.81818H80.9252V8.14986H81.0264C81.2146 7.71662 81.5094 7.36861 81.9107 7.10582C82.3155 6.84304 82.8251 6.71165 83.4394 6.71165C83.9969 6.71165 84.4852 6.82884 84.9043 7.06321C85.3233 7.29403 85.6482 7.63849 85.879 8.09659C86.1099 8.55469 86.2253 9.12109 86.2253 9.79581V15H84.6326V9.98757C84.6326 9.39453 84.4781 8.93111 84.1692 8.5973C83.8602 8.25994 83.4359 8.09126 82.8961 8.09126C82.5268 8.09126 82.1983 8.17116 81.9107 8.33097C81.6266 8.49077 81.4011 8.72514 81.2342 9.03409C81.0708 9.33949 80.9891 9.70881 80.9891 10.142ZM91.5667 18.2386C90.9168 18.2386 90.3575 18.1534 89.8888 17.983C89.4236 17.8125 89.0436 17.587 88.7489 17.3065C88.4541 17.0259 88.234 16.7188 88.0884 16.3849L89.4573 15.8203C89.5532 15.9766 89.681 16.1417 89.8408 16.3157C90.0042 16.4933 90.2244 16.6442 90.5014 16.7685C90.7819 16.8928 91.1423 16.9549 91.5827 16.9549C92.1864 16.9549 92.6853 16.8075 93.0795 16.5128C93.4737 16.2216 93.6707 15.7564 93.6707 15.1172V13.5085H93.5695C93.4737 13.6825 93.3352 13.8761 93.1541 14.0891C92.9765 14.3022 92.7315 14.4869 92.419 14.6431C92.1065 14.7994 91.6999 14.8775 91.1992 14.8775C90.5528 14.8775 89.9705 14.7266 89.452 14.4247C88.9371 14.1193 88.5287 13.6701 88.2268 13.0771C87.9286 12.4805 87.7794 11.7472 87.7794 10.8771C87.7794 10.0071 87.9268 9.26136 88.2215 8.63991C88.5198 8.01847 88.9282 7.54261 89.4467 7.21236C89.9651 6.87855 90.5528 6.71165 91.2098 6.71165C91.7176 6.71165 92.1278 6.79688 92.4403 6.96733C92.7528 7.13423 92.996 7.32955 93.17 7.55327C93.3476 7.77699 93.4843 7.97408 93.5802 8.14453H93.6974V6.81818H95.2581V15.1811C95.2581 15.8842 95.0947 16.4613 94.768 16.9123C94.4413 17.3633 93.9992 17.6971 93.4417 17.9137C92.8877 18.1303 92.2627 18.2386 91.5667 18.2386ZM91.5507 13.5565C92.0088 13.5565 92.3959 13.4499 92.7119 13.2369C93.0315 13.0202 93.273 12.7113 93.4364 12.31C93.6033 11.9052 93.6867 11.4205 93.6867 10.8558C93.6867 10.3054 93.605 9.82067 93.4417 9.40163C93.2783 8.9826 93.0386 8.65589 92.7226 8.42152C92.4065 8.18359 92.0159 8.06463 91.5507 8.06463C91.0713 8.06463 90.6718 8.18892 90.3522 8.4375C90.0326 8.68253 89.7911 9.01633 89.6278 9.43892C89.468 9.86151 89.3881 10.3338 89.3881 10.8558C89.3881 11.392 89.4697 11.8626 89.6331 12.2674C89.7965 12.6722 90.0379 12.9883 90.3575 13.2156C90.6807 13.4428 91.0784 13.5565 91.5507 13.5565ZM110.102 7.63849H108.44C108.377 7.28338 108.258 6.97088 108.084 6.70099C107.91 6.43111 107.697 6.20206 107.444 6.01385C107.192 5.82564 106.91 5.68359 106.597 5.58771C106.288 5.49183 105.96 5.44389 105.612 5.44389C104.983 5.44389 104.421 5.60192 103.923 5.91797C103.43 6.23402 103.039 6.69744 102.752 7.30824C102.467 7.91903 102.325 8.66477 102.325 9.54545C102.325 10.4332 102.467 11.1825 102.752 11.7933C103.039 12.4041 103.432 12.8658 103.929 13.1783C104.426 13.4908 104.985 13.647 105.607 13.647C105.951 13.647 106.278 13.6009 106.587 13.5085C106.899 13.4126 107.182 13.2724 107.434 13.0877C107.686 12.9031 107.899 12.6776 108.073 12.4112C108.25 12.1413 108.373 11.8324 108.44 11.4844L110.102 11.4897C110.014 12.0259 109.841 12.5195 109.586 12.9705C109.334 13.418 109.009 13.805 108.611 14.1317C108.217 14.4549 107.766 14.7053 107.258 14.8828C106.75 15.0604 106.196 15.1491 105.596 15.1491C104.651 15.1491 103.81 14.9254 103.071 14.478C102.333 14.027 101.75 13.3825 101.324 12.5444C100.901 11.7063 100.69 10.7067 100.69 9.54545C100.69 8.38068 100.903 7.38104 101.329 6.54652C101.755 5.70845 102.338 5.0657 103.076 4.61825C103.815 4.16726 104.655 3.94176 105.596 3.94176C106.175 3.94176 106.715 4.02521 107.215 4.19212C107.72 4.35547 108.172 4.59695 108.574 4.91655C108.975 5.2326 109.307 5.61967 109.57 6.07777C109.833 6.53232 110.01 7.05256 110.102 7.63849ZM115.165 15.1651C114.398 15.1651 113.729 14.9893 113.157 14.6378C112.586 14.2862 112.142 13.7944 111.826 13.1623C111.51 12.5302 111.352 11.7915 111.352 10.9464C111.352 10.0977 111.51 9.35547 111.826 8.71982C112.142 8.08416 112.586 7.59055 113.157 7.23899C113.729 6.88743 114.398 6.71165 115.165 6.71165C115.933 6.71165 116.602 6.88743 117.174 7.23899C117.745 7.59055 118.189 8.08416 118.505 8.71982C118.821 9.35547 118.979 10.0977 118.979 10.9464C118.979 11.7915 118.821 12.5302 118.505 13.1623C118.189 13.7944 117.745 14.2862 117.174 14.6378C116.602 14.9893 115.933 15.1651 115.165 15.1651ZM115.171 13.8281C115.668 13.8281 116.08 13.6967 116.407 13.4339C116.733 13.1712 116.975 12.8214 117.131 12.3846C117.291 11.9478 117.371 11.4666 117.371 10.9411C117.371 10.419 117.291 9.93963 117.131 9.50284C116.975 9.0625 116.733 8.70916 116.407 8.44283C116.08 8.17649 115.668 8.04332 115.171 8.04332C114.67 8.04332 114.255 8.17649 113.924 8.44283C113.598 8.70916 113.354 9.0625 113.195 9.50284C113.038 9.93963 112.96 10.419 112.96 10.9411C112.96 11.4666 113.038 11.9478 113.195 12.3846C113.354 12.8214 113.598 13.1712 113.924 13.4339C114.255 13.6967 114.67 13.8281 115.171 13.8281ZM122.125 10.142V15H120.532V6.81818H122.061V8.14986H122.162C122.35 7.71662 122.645 7.36861 123.046 7.10582C123.451 6.84304 123.961 6.71165 124.575 6.71165C125.133 6.71165 125.621 6.82884 126.04 7.06321C126.459 7.29403 126.784 7.63849 127.015 8.09659C127.246 8.55469 127.361 9.12109 127.361 9.79581V15H125.768V9.98757C125.768 9.39453 125.614 8.93111 125.305 8.5973C124.996 8.25994 124.572 8.09126 124.032 8.09126C123.663 8.09126 123.334 8.17116 123.046 8.33097C122.762 8.49077 122.537 8.72514 122.37 9.03409C122.207 9.33949 122.125 9.70881 122.125 10.142ZM130.865 10.142V15H129.272V6.81818H130.801V8.14986H130.902C131.09 7.71662 131.385 7.36861 131.786 7.10582C132.191 6.84304 132.701 6.71165 133.315 6.71165C133.873 6.71165 134.361 6.82884 134.78 7.06321C135.199 7.29403 135.524 7.63849 135.755 8.09659C135.985 8.55469 136.101 9.12109 136.101 9.79581V15H134.508V9.98757C134.508 9.39453 134.354 8.93111 134.045 8.5973C133.736 8.25994 133.311 8.09126 132.772 8.09126C132.402 8.09126 132.074 8.17116 131.786 8.33097C131.502 8.49077 131.277 8.72514 131.11 9.03409C130.946 9.33949 130.865 9.70881 130.865 10.142ZM141.538 15.1651C140.732 15.1651 140.038 14.9929 139.455 14.6484C138.877 14.3004 138.429 13.8121 138.113 13.1836C137.801 12.5515 137.644 11.8111 137.644 10.9624C137.644 10.1243 137.801 9.38565 138.113 8.74645C138.429 8.10724 138.869 7.60831 139.434 7.24964C140.002 6.89098 140.666 6.71165 141.426 6.71165C141.888 6.71165 142.335 6.788 142.769 6.9407C143.202 7.09339 143.591 7.3331 143.935 7.6598C144.28 7.98651 144.551 8.41087 144.75 8.93288C144.949 9.45135 145.048 10.0817 145.048 10.8239V11.3885H138.545V10.1953H143.488C143.488 9.77628 143.403 9.40518 143.232 9.08203C143.062 8.75533 142.822 8.49787 142.513 8.30966C142.208 8.12145 141.849 8.02734 141.437 8.02734C140.99 8.02734 140.599 8.13743 140.265 8.3576C139.935 8.57422 139.679 8.85831 139.498 9.20987C139.32 9.55788 139.232 9.93608 139.232 10.3445V11.2766C139.232 11.8235 139.328 12.2887 139.519 12.6722C139.715 13.0558 139.986 13.3487 140.334 13.5511C140.682 13.75 141.089 13.8494 141.554 13.8494C141.856 13.8494 142.131 13.8068 142.38 13.7216C142.628 13.6328 142.843 13.5014 143.024 13.3274C143.205 13.1534 143.344 12.9386 143.44 12.6829L144.947 12.9545C144.827 13.3984 144.61 13.7873 144.297 14.1211C143.988 14.4513 143.6 14.7088 143.131 14.8935C142.666 15.0746 142.135 15.1651 141.538 15.1651ZM150.037 15.1651C149.245 15.1651 148.563 14.9858 147.992 14.6271C147.423 14.2649 146.987 13.766 146.681 13.1303C146.376 12.4947 146.223 11.7667 146.223 10.9464C146.223 10.1154 146.379 9.3821 146.692 8.74645C147.004 8.10724 147.445 7.60831 148.013 7.24964C148.581 6.89098 149.25 6.71165 150.021 6.71165C150.642 6.71165 151.196 6.82706 151.683 7.05788C152.169 7.28516 152.562 7.60476 152.86 8.01669C153.162 8.42862 153.341 8.9098 153.398 9.46023H151.848C151.763 9.0767 151.568 8.74645 151.262 8.46946C150.96 8.19247 150.555 8.05398 150.048 8.05398C149.604 8.05398 149.215 8.17116 148.881 8.40554C148.551 8.63636 148.293 8.96662 148.109 9.39631C147.924 9.82244 147.832 10.3267 147.832 10.9091C147.832 11.5057 147.922 12.0206 148.103 12.4538C148.284 12.8871 148.54 13.2227 148.87 13.4606C149.204 13.6985 149.597 13.8175 150.048 13.8175C150.349 13.8175 150.623 13.7624 150.868 13.6523C151.117 13.5387 151.324 13.3771 151.491 13.1676C151.662 12.9581 151.781 12.706 151.848 12.4112H153.398C153.341 12.9403 153.169 13.4126 152.881 13.8281C152.594 14.2436 152.208 14.5703 151.726 14.8082C151.246 15.0462 150.683 15.1651 150.037 15.1651ZM158.696 6.81818V8.09659H154.226V6.81818H158.696ZM155.425 4.85795H157.018V12.5977C157.018 12.9066 157.064 13.1392 157.156 13.2955C157.248 13.4482 157.367 13.5529 157.513 13.6097C157.662 13.663 157.824 13.6896 157.998 13.6896C158.126 13.6896 158.237 13.6808 158.333 13.663C158.429 13.6452 158.504 13.631 158.557 13.6204L158.845 14.9361C158.752 14.9716 158.621 15.0071 158.451 15.0426C158.28 15.0817 158.067 15.103 157.811 15.1065C157.392 15.1136 157.002 15.0391 156.639 14.8828C156.277 14.7266 155.984 14.4851 155.761 14.1584C155.537 13.8317 155.425 13.4215 155.425 12.9279V4.85795ZM160.232 15V6.81818H161.825V15H160.232ZM161.037 5.55575C160.76 5.55575 160.522 5.46342 160.323 5.27876C160.128 5.09055 160.03 4.86683 160.03 4.6076C160.03 4.34482 160.128 4.12109 160.323 3.93643C160.522 3.74822 160.76 3.65412 161.037 3.65412C161.314 3.65412 161.55 3.74822 161.745 3.93643C161.944 4.12109 162.043 4.34482 162.043 4.6076C162.043 4.86683 161.944 5.09055 161.745 5.27876C161.55 5.46342 161.314 5.55575 161.037 5.55575ZM167.189 15.1651C166.422 15.1651 165.753 14.9893 165.181 14.6378C164.609 14.2862 164.165 13.7944 163.849 13.1623C163.533 12.5302 163.375 11.7915 163.375 10.9464C163.375 10.0977 163.533 9.35547 163.849 8.71982C164.165 8.08416 164.609 7.59055 165.181 7.23899C165.753 6.88743 166.422 6.71165 167.189 6.71165C167.956 6.71165 168.626 6.88743 169.197 7.23899C169.769 7.59055 170.213 8.08416 170.529 8.71982C170.845 9.35547 171.003 10.0977 171.003 10.9464C171.003 11.7915 170.845 12.5302 170.529 13.1623C170.213 13.7944 169.769 14.2862 169.197 14.6378C168.626 14.9893 167.956 15.1651 167.189 15.1651ZM167.194 13.8281C167.692 13.8281 168.104 13.6967 168.43 13.4339C168.757 13.1712 168.998 12.8214 169.155 12.3846C169.314 11.9478 169.394 11.4666 169.394 10.9411C169.394 10.419 169.314 9.93963 169.155 9.50284C168.998 9.0625 168.757 8.70916 168.43 8.44283C168.104 8.17649 167.692 8.04332 167.194 8.04332C166.694 8.04332 166.278 8.17649 165.948 8.44283C165.621 8.70916 165.378 9.0625 165.218 9.50284C165.062 9.93963 164.984 10.419 164.984 10.9411C164.984 11.4666 165.062 11.9478 165.218 12.3846C165.378 12.8214 165.621 13.1712 165.948 13.4339C166.278 13.6967 166.694 13.8281 167.194 13.8281ZM174.149 10.142V15H172.556V6.81818H174.085V8.14986H174.186C174.374 7.71662 174.669 7.36861 175.07 7.10582C175.475 6.84304 175.984 6.71165 176.599 6.71165C177.156 6.71165 177.645 6.82884 178.064 7.06321C178.483 7.29403 178.808 7.63849 179.038 8.09659C179.269 8.55469 179.385 9.12109 179.385 9.79581V15H177.792V9.98757C177.792 9.39453 177.637 8.93111 177.329 8.5973C177.02 8.25994 176.595 8.09126 176.055 8.09126C175.686 8.09126 175.358 8.17116 175.07 8.33097C174.786 8.49077 174.56 8.72514 174.394 9.03409C174.23 9.33949 174.149 9.70881 174.149 10.142ZM187.768 9.54545C187.768 8.97372 187.908 8.4517 188.188 7.9794C188.469 7.5071 188.844 7.13246 189.312 6.85547C189.785 6.57493 190.307 6.43466 190.878 6.43466C191.376 6.43466 191.835 6.54297 192.258 6.75959C192.681 6.97266 193.03 7.26562 193.307 7.63849C193.584 8.01136 193.753 8.4304 193.813 8.8956H192.429C192.365 8.56534 192.184 8.29545 191.885 8.08594C191.59 7.87287 191.255 7.76633 190.878 7.76633C190.552 7.76633 190.253 7.84624 189.984 8.00604C189.714 8.16584 189.499 8.38068 189.339 8.65057C189.179 8.9169 189.099 9.2152 189.099 9.54545C189.099 9.87216 189.179 10.1705 189.339 10.4403C189.499 10.7102 189.714 10.9251 189.984 11.0849C190.253 11.2447 190.552 11.3246 190.878 11.3246C191.255 11.3246 191.576 11.2198 191.843 11.0103C192.109 10.7972 192.276 10.5256 192.343 10.1953H193.728C193.668 10.6605 193.506 11.0795 193.244 11.4524C192.981 11.8253 192.645 12.12 192.237 12.3366C191.828 12.5497 191.376 12.6562 190.878 12.6562C190.307 12.6562 189.785 12.5178 189.312 12.2408C188.844 11.9602 188.469 11.5838 188.188 11.1115C187.908 10.6392 187.768 10.1172 187.768 9.54545ZM190.831 15.1705C190.056 15.1705 189.328 15.0249 188.647 14.7337C187.968 14.4425 187.37 14.0394 186.851 13.5245C186.337 13.006 185.932 12.4077 185.637 11.7294C185.346 11.0511 185.202 10.3232 185.206 9.54545C185.209 8.76776 185.356 8.03977 185.648 7.36151C185.942 6.68324 186.347 6.08665 186.862 5.57173C187.377 5.05327 187.974 4.64844 188.652 4.35724C189.33 4.06605 190.056 3.92045 190.831 3.92045C191.608 3.92045 192.336 4.06605 193.014 4.35724C193.696 4.64844 194.293 5.05327 194.804 5.57173C195.319 6.08665 195.722 6.68324 196.013 7.36151C196.305 8.03977 196.452 8.76776 196.456 9.54545C196.459 10.3232 196.315 11.0511 196.024 11.7294C195.733 12.4077 195.33 13.006 194.815 13.5245C194.3 14.0394 193.702 14.4425 193.02 14.7337C192.338 15.0249 191.608 15.1705 190.831 15.1705ZM190.831 13.7536C191.413 13.7536 191.96 13.6452 192.471 13.4286C192.983 13.212 193.43 12.9119 193.813 12.5284C194.201 12.1413 194.502 11.6939 194.719 11.1861C194.936 10.6747 195.042 10.1296 195.039 9.55078C195.039 8.96839 194.929 8.42152 194.708 7.91016C194.492 7.39879 194.19 6.95135 193.803 6.56783C193.419 6.18075 192.974 5.87891 192.466 5.66229C191.958 5.44567 191.413 5.33736 190.831 5.33736C190.252 5.33736 189.708 5.44567 189.201 5.66229C188.693 5.87891 188.245 6.18075 187.858 6.56783C187.475 6.9549 187.173 7.40412 186.953 7.91548C186.733 8.4233 186.622 8.96839 186.622 9.55078C186.619 10.1261 186.725 10.6694 186.942 11.1808C187.162 11.6886 187.464 12.136 187.848 12.5231C188.235 12.9066 188.682 13.2085 189.19 13.4286C189.701 13.6452 190.248 13.7536 190.831 13.7536ZM211.474 7.63849H209.812C209.748 7.28338 209.629 6.97088 209.455 6.70099C209.281 6.43111 209.068 6.20206 208.816 6.01385C208.564 5.82564 208.282 5.68359 207.969 5.58771C207.66 5.49183 207.332 5.44389 206.984 5.44389C206.355 5.44389 205.792 5.60192 205.295 5.91797C204.802 6.23402 204.411 6.69744 204.123 7.30824C203.839 7.91903 203.697 8.66477 203.697 9.54545C203.697 10.4332 203.839 11.1825 204.123 11.7933C204.411 12.4041 204.803 12.8658 205.301 13.1783C205.798 13.4908 206.357 13.647 206.979 13.647C207.323 13.647 207.65 13.6009 207.959 13.5085C208.271 13.4126 208.553 13.2724 208.806 13.0877C209.058 12.9031 209.271 12.6776 209.445 12.4112C209.622 12.1413 209.745 11.8324 209.812 11.4844L211.474 11.4897C211.385 12.0259 211.213 12.5195 210.958 12.9705C210.705 13.418 210.381 13.805 209.983 14.1317C209.589 14.4549 209.138 14.7053 208.63 14.8828C208.122 15.0604 207.568 15.1491 206.968 15.1491C206.023 15.1491 205.182 14.9254 204.443 14.478C203.704 14.027 203.122 13.3825 202.696 12.5444C202.273 11.7063 202.062 10.7067 202.062 9.54545C202.062 8.38068 202.275 7.38104 202.701 6.54652C203.127 5.70845 203.71 5.0657 204.448 4.61825C205.187 4.16726 206.027 3.94176 206.968 3.94176C207.547 3.94176 208.086 4.02521 208.587 4.19212C209.091 4.35547 209.544 4.59695 209.946 4.91655C210.347 5.2326 210.679 5.61967 210.942 6.07777C211.204 6.53232 211.382 7.05256 211.474 7.63849ZM216.537 15.1651C215.77 15.1651 215.101 14.9893 214.529 14.6378C213.957 14.2862 213.514 13.7944 213.198 13.1623C212.881 12.5302 212.723 11.7915 212.723 10.9464C212.723 10.0977 212.881 9.35547 213.198 8.71982C213.514 8.08416 213.957 7.59055 214.529 7.23899C215.101 6.88743 215.77 6.71165 216.537 6.71165C217.304 6.71165 217.974 6.88743 218.546 7.23899C219.117 7.59055 219.561 8.08416 219.877 8.71982C220.193 9.35547 220.351 10.0977 220.351 10.9464C220.351 11.7915 220.193 12.5302 219.877 13.1623C219.561 13.7944 219.117 14.2862 218.546 14.6378C217.974 14.9893 217.304 15.1651 216.537 15.1651ZM216.543 13.8281C217.04 13.8281 217.452 13.6967 217.778 13.4339C218.105 13.1712 218.347 12.8214 218.503 12.3846C218.663 11.9478 218.743 11.4666 218.743 10.9411C218.743 10.419 218.663 9.93963 218.503 9.50284C218.347 9.0625 218.105 8.70916 217.778 8.44283C217.452 8.17649 217.04 8.04332 216.543 8.04332C216.042 8.04332 215.626 8.17649 215.296 8.44283C214.97 8.70916 214.726 9.0625 214.566 9.50284C214.41 9.93963 214.332 10.419 214.332 10.9411C214.332 11.4666 214.41 11.9478 214.566 12.3846C214.726 12.8214 214.97 13.1712 215.296 13.4339C215.626 13.6967 216.042 13.8281 216.543 13.8281ZM221.904 18.0682V6.81818H223.459V8.14453H223.593C223.685 7.97408 223.818 7.77699 223.992 7.55327C224.166 7.32955 224.408 7.13423 224.717 6.96733C225.026 6.79688 225.434 6.71165 225.942 6.71165C226.602 6.71165 227.192 6.87855 227.71 7.21236C228.229 7.54616 228.635 8.02734 228.93 8.65589C229.228 9.28445 229.377 10.0408 229.377 10.9251C229.377 11.8093 229.23 12.5675 228.935 13.1996C228.641 13.8281 228.236 14.3129 227.721 14.6538C227.206 14.9911 226.618 15.1598 225.958 15.1598C225.461 15.1598 225.054 15.0763 224.738 14.9094C224.425 14.7425 224.18 14.5472 224.003 14.3235C223.825 14.0998 223.689 13.9009 223.593 13.7269H223.497V18.0682H221.904ZM223.465 10.9091C223.465 11.4844 223.548 11.9886 223.715 12.4219C223.882 12.8551 224.124 13.1942 224.44 13.4393C224.756 13.6808 225.143 13.8015 225.601 13.8015C226.077 13.8015 226.474 13.6754 226.794 13.4233C227.114 13.1676 227.355 12.8214 227.518 12.3846C227.685 11.9478 227.769 11.456 227.769 10.9091C227.769 10.3693 227.687 9.88459 227.524 9.4549C227.364 9.02521 227.122 8.68608 226.799 8.4375C226.48 8.18892 226.08 8.06463 225.601 8.06463C225.139 8.06463 224.749 8.18359 224.429 8.42152C224.113 8.65945 223.873 8.99148 223.71 9.41761C223.546 9.84375 223.465 10.3409 223.465 10.9091ZM231.665 18.0682C231.427 18.0682 231.211 18.0487 231.015 18.0096C230.82 17.9741 230.675 17.935 230.579 17.8924L230.962 16.5874C231.253 16.6655 231.513 16.6992 231.74 16.6886C231.967 16.6779 232.168 16.5927 232.342 16.4329C232.519 16.2731 232.676 16.0121 232.811 15.6499L233.008 15.1065L230.014 6.81818H231.719L233.791 13.1676H233.876L235.948 6.81818H237.658L234.286 16.092C234.13 16.5181 233.931 16.8786 233.689 17.1733C233.448 17.4716 233.16 17.6953 232.827 17.8445C232.493 17.9936 232.106 18.0682 231.665 18.0682ZM238.93 15V6.81818H240.469V8.1179H240.554C240.703 7.67756 240.966 7.33132 241.343 7.07919C241.723 6.82351 242.152 6.69567 242.632 6.69567C242.731 6.69567 242.848 6.69922 242.983 6.70632C243.122 6.71342 243.23 6.7223 243.308 6.73295V8.25639C243.244 8.23864 243.131 8.21911 242.967 8.1978C242.804 8.17294 242.641 8.16051 242.477 8.16051C242.101 8.16051 241.765 8.24041 241.47 8.40021C241.179 8.55646 240.948 8.77486 240.778 9.0554C240.608 9.33239 240.522 9.64844 240.522 10.0036V15H238.93ZM244.461 15V6.81818H246.054V15H244.461ZM245.266 5.55575C244.989 5.55575 244.751 5.46342 244.552 5.27876C244.357 5.09055 244.259 4.86683 244.259 4.6076C244.259 4.34482 244.357 4.12109 244.552 3.93643C244.751 3.74822 244.989 3.65412 245.266 3.65412C245.543 3.65412 245.779 3.74822 245.974 3.93643C246.173 4.12109 246.273 4.34482 246.273 4.6076C246.273 4.86683 246.173 5.09055 245.974 5.27876C245.779 5.46342 245.543 5.55575 245.266 5.55575ZM251.402 18.2386C250.752 18.2386 250.193 18.1534 249.724 17.983C249.259 17.8125 248.879 17.587 248.584 17.3065C248.29 17.0259 248.069 16.7188 247.924 16.3849L249.293 15.8203C249.389 15.9766 249.517 16.1417 249.676 16.3157C249.84 16.4933 250.06 16.6442 250.337 16.7685C250.617 16.8928 250.978 16.9549 251.418 16.9549C252.022 16.9549 252.521 16.8075 252.915 16.5128C253.309 16.2216 253.506 15.7564 253.506 15.1172V13.5085H253.405C253.309 13.6825 253.171 13.8761 252.99 14.0891C252.812 14.3022 252.567 14.4869 252.255 14.6431C251.942 14.7994 251.535 14.8775 251.035 14.8775C250.388 14.8775 249.806 14.7266 249.288 14.4247C248.773 14.1193 248.364 13.6701 248.062 13.0771C247.764 12.4805 247.615 11.7472 247.615 10.8771C247.615 10.0071 247.762 9.26136 248.057 8.63991C248.355 8.01847 248.764 7.54261 249.282 7.21236C249.801 6.87855 250.388 6.71165 251.045 6.71165C251.553 6.71165 251.963 6.79688 252.276 6.96733C252.588 7.13423 252.832 7.32955 253.006 7.55327C253.183 7.77699 253.32 7.97408 253.416 8.14453H253.533V6.81818H255.094V15.1811C255.094 15.8842 254.93 16.4613 254.604 16.9123C254.277 17.3633 253.835 17.6971 253.277 17.9137C252.723 18.1303 252.098 18.2386 251.402 18.2386ZM251.386 13.5565C251.844 13.5565 252.231 13.4499 252.547 13.2369C252.867 13.0202 253.109 12.7113 253.272 12.31C253.439 11.9052 253.522 11.4205 253.522 10.8558C253.522 10.3054 253.441 9.82067 253.277 9.40163C253.114 8.9826 252.874 8.65589 252.558 8.42152C252.242 8.18359 251.851 8.06463 251.386 8.06463C250.907 8.06463 250.507 8.18892 250.188 8.4375C249.868 8.68253 249.627 9.01633 249.463 9.43892C249.304 9.86151 249.224 10.3338 249.224 10.8558C249.224 11.392 249.305 11.8626 249.469 12.2674C249.632 12.6722 249.873 12.9883 250.193 13.2156C250.516 13.4428 250.914 13.5565 251.386 13.5565ZM258.597 10.142V15H257.005V4.09091H258.576V8.14986H258.677C258.869 7.70952 259.162 7.35973 259.556 7.1005C259.95 6.84126 260.465 6.71165 261.101 6.71165C261.662 6.71165 262.152 6.82706 262.571 7.05788C262.994 7.28871 263.32 7.63317 263.551 8.09126C263.786 8.54581 263.903 9.11399 263.903 9.79581V15H262.31V9.98757C262.31 9.38743 262.156 8.92223 261.847 8.59197C261.538 8.25817 261.108 8.09126 260.558 8.09126C260.181 8.09126 259.844 8.17116 259.545 8.33097C259.251 8.49077 259.018 8.72514 258.848 9.03409C258.681 9.33949 258.597 9.70881 258.597 10.142ZM269.622 6.81818V8.09659H265.153V6.81818H269.622ZM266.352 4.85795H267.944V12.5977C267.944 12.9066 267.991 13.1392 268.083 13.2955C268.175 13.4482 268.294 13.5529 268.44 13.6097C268.589 13.663 268.751 13.6896 268.925 13.6896C269.052 13.6896 269.164 13.6808 269.26 13.663C269.356 13.6452 269.431 13.631 269.484 13.6204L269.771 14.9361C269.679 14.9716 269.548 15.0071 269.377 15.0426C269.207 15.0817 268.994 15.103 268.738 15.1065C268.319 15.1136 267.928 15.0391 267.566 14.8828C267.204 14.7266 266.911 14.4851 266.687 14.1584C266.464 13.8317 266.352 13.4215 266.352 12.9279V4.85795ZM274.883 15V13.8068L278.574 9.98224C278.968 9.56676 279.293 9.20277 279.549 8.89027C279.808 8.57422 280.002 8.27415 280.129 7.99006C280.257 7.70597 280.321 7.40412 280.321 7.08452C280.321 6.7223 280.236 6.4098 280.065 6.14702C279.895 5.88068 279.662 5.67649 279.368 5.53445C279.073 5.38885 278.741 5.31605 278.372 5.31605C277.981 5.31605 277.64 5.39595 277.349 5.55575C277.058 5.71555 276.834 5.94105 276.678 6.23224C276.521 6.52344 276.443 6.86435 276.443 7.25497H274.872C274.872 6.59091 275.025 6.0103 275.33 5.51314C275.635 5.01598 276.054 4.63068 276.587 4.35724C277.12 4.08026 277.725 3.94176 278.404 3.94176C279.089 3.94176 279.693 4.07848 280.215 4.35192C280.74 4.6218 281.15 4.99112 281.445 5.45987C281.74 5.92507 281.887 6.45064 281.887 7.03658C281.887 7.44141 281.811 7.83736 281.658 8.22443C281.509 8.61151 281.248 9.04297 280.875 9.51882C280.502 9.99112 279.984 10.5646 279.32 11.2393L277.152 13.5085V13.5884H282.063V15H274.883ZM287.655 15.1811C286.813 15.1776 286.094 14.9556 285.497 14.5153C284.901 14.0749 284.445 13.4339 284.128 12.5923C283.812 11.7507 283.654 10.7369 283.654 9.55078C283.654 8.36825 283.812 7.35795 284.128 6.51989C284.448 5.68182 284.906 5.04261 285.503 4.60227C286.103 4.16193 286.82 3.94176 287.655 3.94176C288.489 3.94176 289.205 4.16371 289.801 4.6076C290.398 5.04794 290.854 5.68714 291.17 6.52521C291.49 7.35973 291.65 8.36825 291.65 9.55078C291.65 10.7404 291.492 11.756 291.176 12.5977C290.86 13.4357 290.403 14.0767 289.807 14.5206C289.21 14.9609 288.493 15.1811 287.655 15.1811ZM287.655 13.7589C288.393 13.7589 288.97 13.3984 289.386 12.6776C289.805 11.9567 290.014 10.9144 290.014 9.55078C290.014 8.64524 289.919 7.87997 289.727 7.25497C289.539 6.62642 289.267 6.15057 288.912 5.82741C288.56 5.50071 288.141 5.33736 287.655 5.33736C286.92 5.33736 286.343 5.69957 285.924 6.42401C285.505 7.14844 285.293 8.1907 285.29 9.55078C285.29 10.4599 285.384 11.2287 285.572 11.8572C285.764 12.4822 286.035 12.9563 286.387 13.2795C286.739 13.5991 287.161 13.7589 287.655 13.7589ZM293.314 15V13.8068L297.006 9.98224C297.4 9.56676 297.725 9.20277 297.981 8.89027C298.24 8.57422 298.433 8.27415 298.561 7.99006C298.689 7.70597 298.753 7.40412 298.753 7.08452C298.753 6.7223 298.668 6.4098 298.497 6.14702C298.327 5.88068 298.094 5.67649 297.799 5.53445C297.505 5.38885 297.173 5.31605 296.803 5.31605C296.413 5.31605 296.072 5.39595 295.781 5.55575C295.489 5.71555 295.266 5.94105 295.11 6.23224C294.953 6.52344 294.875 6.86435 294.875 7.25497H293.304C293.304 6.59091 293.456 6.0103 293.762 5.51314C294.067 5.01598 294.486 4.63068 295.019 4.35724C295.552 4.08026 296.157 3.94176 296.835 3.94176C297.521 3.94176 298.124 4.07848 298.646 4.35192C299.172 4.6218 299.582 4.99112 299.877 5.45987C300.172 5.92507 300.319 6.45064 300.319 7.03658C300.319 7.44141 300.243 7.83736 300.09 8.22443C299.941 8.61151 299.68 9.04297 299.307 9.51882C298.934 9.99112 298.416 10.5646 297.752 11.2393L295.584 13.5085V13.5884H300.495V15H293.314ZM302.289 15V13.8068L305.98 9.98224C306.374 9.56676 306.699 9.20277 306.955 8.89027C307.214 8.57422 307.408 8.27415 307.535 7.99006C307.663 7.70597 307.727 7.40412 307.727 7.08452C307.727 6.7223 307.642 6.4098 307.472 6.14702C307.301 5.88068 307.068 5.67649 306.774 5.53445C306.479 5.38885 306.147 5.31605 305.778 5.31605C305.387 5.31605 305.046 5.39595 304.755 5.55575C304.464 5.71555 304.24 5.94105 304.084 6.23224C303.927 6.52344 303.849 6.86435 303.849 7.25497H302.278C302.278 6.59091 302.431 6.0103 302.736 5.51314C303.041 5.01598 303.46 4.63068 303.993 4.35724C304.526 4.08026 305.131 3.94176 305.81 3.94176C306.495 3.94176 307.099 4.07848 307.621 4.35192C308.146 4.6218 308.556 4.99112 308.851 5.45987C309.146 5.92507 309.293 6.45064 309.293 7.03658C309.293 7.44141 309.217 7.83736 309.064 8.22443C308.915 8.61151 308.654 9.04297 308.281 9.51882C307.908 9.99112 307.39 10.5646 306.726 11.2393L304.558 13.5085V13.5884H309.469V15H302.289ZM317.239 0.575284V18.5156H315.812V0.575284H317.239ZM324.74 15H322.992L326.918 4.09091H328.82L332.746 15H330.998L327.914 6.07244H327.829L324.74 15ZM325.033 10.728H330.7V12.1129H325.033V10.728ZM335.561 4.09091V15H333.968V4.09091H335.561ZM339.071 4.09091V15H337.478V4.09091H339.071ZM344.734 15V6.81818H346.273V8.1179H346.358C346.507 7.67756 346.77 7.33132 347.147 7.07919C347.527 6.82351 347.956 6.69567 348.436 6.69567C348.535 6.69567 348.652 6.69922 348.787 6.70632C348.926 6.71342 349.034 6.7223 349.112 6.73295V8.25639C349.048 8.23864 348.935 8.21911 348.771 8.1978C348.608 8.17294 348.445 8.16051 348.281 8.16051C347.905 8.16051 347.569 8.24041 347.274 8.40021C346.983 8.55646 346.752 8.77486 346.582 9.0554C346.411 9.33239 346.326 9.64844 346.326 10.0036V15H344.734ZM350.265 15V6.81818H351.858V15H350.265ZM351.07 5.55575C350.793 5.55575 350.555 5.46342 350.356 5.27876C350.161 5.09055 350.063 4.86683 350.063 4.6076C350.063 4.34482 350.161 4.12109 350.356 3.93643C350.555 3.74822 350.793 3.65412 351.07 3.65412C351.347 3.65412 351.583 3.74822 351.778 3.93643C351.977 4.12109 352.076 4.34482 352.076 4.6076C352.076 4.86683 351.977 5.09055 351.778 5.27876C351.583 5.46342 351.347 5.55575 351.07 5.55575ZM357.206 18.2386C356.556 18.2386 355.997 18.1534 355.528 17.983C355.063 17.8125 354.683 17.587 354.388 17.3065C354.094 17.0259 353.873 16.7188 353.728 16.3849L355.097 15.8203C355.193 15.9766 355.32 16.1417 355.48 16.3157C355.644 16.4933 355.864 16.6442 356.141 16.7685C356.421 16.8928 356.782 16.9549 357.222 16.9549C357.826 16.9549 358.325 16.8075 358.719 16.5128C359.113 16.2216 359.31 15.7564 359.31 15.1172V13.5085H359.209C359.113 13.6825 358.975 13.8761 358.794 14.0891C358.616 14.3022 358.371 14.4869 358.058 14.6431C357.746 14.7994 357.339 14.8775 356.839 14.8775C356.192 14.8775 355.61 14.7266 355.091 14.4247C354.577 14.1193 354.168 13.6701 353.866 13.0771C353.568 12.4805 353.419 11.7472 353.419 10.8771C353.419 10.0071 353.566 9.26136 353.861 8.63991C354.159 8.01847 354.568 7.54261 355.086 7.21236C355.605 6.87855 356.192 6.71165 356.849 6.71165C357.357 6.71165 357.767 6.79688 358.08 6.96733C358.392 7.13423 358.635 7.32955 358.809 7.55327C358.987 7.77699 359.124 7.97408 359.22 8.14453H359.337V6.81818H360.898V15.1811C360.898 15.8842 360.734 16.4613 360.407 16.9123C360.081 17.3633 359.639 17.6971 359.081 17.9137C358.527 18.1303 357.902 18.2386 357.206 18.2386ZM357.19 13.5565C357.648 13.5565 358.035 13.4499 358.351 13.2369C358.671 13.0202 358.912 12.7113 359.076 12.31C359.243 11.9052 359.326 11.4205 359.326 10.8558C359.326 10.3054 359.244 9.82067 359.081 9.40163C358.918 8.9826 358.678 8.65589 358.362 8.42152C358.046 8.18359 357.655 8.06463 357.19 8.06463C356.711 8.06463 356.311 8.18892 355.992 8.4375C355.672 8.68253 355.431 9.01633 355.267 9.43892C355.107 9.86151 355.028 10.3338 355.028 10.8558C355.028 11.392 355.109 11.8626 355.273 12.2674C355.436 12.6722 355.677 12.9883 355.997 13.2156C356.32 13.4428 356.718 13.5565 357.19 13.5565ZM364.401 10.142V15H362.809V4.09091H364.38V8.14986H364.481C364.673 7.70952 364.966 7.35973 365.36 7.1005C365.754 6.84126 366.269 6.71165 366.905 6.71165C367.466 6.71165 367.956 6.82706 368.375 7.05788C368.798 7.28871 369.124 7.63317 369.355 8.09126C369.589 8.54581 369.707 9.11399 369.707 9.79581V15H368.114V9.98757C368.114 9.38743 367.959 8.92223 367.651 8.59197C367.342 8.25817 366.912 8.09126 366.361 8.09126C365.985 8.09126 365.648 8.17116 365.349 8.33097C365.055 8.49077 364.822 8.72514 364.652 9.03409C364.485 9.33949 364.401 9.70881 364.401 10.142ZM375.426 6.81818V8.09659H370.957V6.81818H375.426ZM372.156 4.85795H373.748V12.5977C373.748 12.9066 373.794 13.1392 373.887 13.2955C373.979 13.4482 374.098 13.5529 374.244 13.6097C374.393 13.663 374.554 13.6896 374.728 13.6896C374.856 13.6896 374.968 13.6808 375.064 13.663C375.16 13.6452 375.234 13.631 375.288 13.6204L375.575 14.9361C375.483 14.9716 375.352 15.0071 375.181 15.0426C375.011 15.0817 374.798 15.103 374.542 15.1065C374.123 15.1136 373.732 15.0391 373.37 14.8828C373.008 14.7266 372.715 14.4851 372.491 14.1584C372.267 13.8317 372.156 13.4215 372.156 12.9279V4.85795ZM382.962 8.8157L381.519 9.07138C381.458 8.88672 381.362 8.71094 381.231 8.54403C381.103 8.37713 380.929 8.24041 380.709 8.13388C380.489 8.02734 380.214 7.97408 379.883 7.97408C379.432 7.97408 379.056 8.07528 378.754 8.2777C378.452 8.47656 378.301 8.73402 378.301 9.05007C378.301 9.32351 378.403 9.54368 378.605 9.71058C378.807 9.87749 379.134 10.0142 379.585 10.1207L380.885 10.419C381.638 10.593 382.199 10.8612 382.568 11.2234C382.937 11.5856 383.122 12.0561 383.122 12.6349C383.122 13.125 382.98 13.5618 382.696 13.9453C382.415 14.3253 382.023 14.6236 381.519 14.8402C381.018 15.0568 380.437 15.1651 379.777 15.1651C378.861 15.1651 378.113 14.9698 377.534 14.5792C376.956 14.185 376.6 13.6257 376.469 12.9013L378.008 12.6669C378.104 13.0682 378.301 13.3718 378.6 13.5778C378.898 13.7802 379.287 13.8814 379.766 13.8814C380.288 13.8814 380.706 13.7731 381.018 13.5565C381.331 13.3363 381.487 13.0682 381.487 12.7521C381.487 12.4964 381.391 12.2816 381.199 12.1076C381.011 11.9336 380.721 11.8022 380.331 11.7134L378.946 11.4098C378.182 11.2358 377.618 10.9588 377.252 10.5788C376.89 10.1989 376.709 9.71768 376.709 9.1353C376.709 8.65234 376.844 8.22976 377.114 7.86754C377.383 7.50533 377.756 7.22301 378.232 7.0206C378.708 6.81463 379.253 6.71165 379.867 6.71165C380.752 6.71165 381.448 6.90341 381.956 7.28693C382.463 7.6669 382.799 8.17649 382.962 8.8157ZM388.393 15V6.81818H389.932V8.1179H390.018C390.167 7.67756 390.43 7.33132 390.806 7.07919C391.186 6.82351 391.616 6.69567 392.095 6.69567C392.194 6.69567 392.312 6.69922 392.447 6.70632C392.585 6.71342 392.693 6.7223 392.771 6.73295V8.25639C392.708 8.23864 392.594 8.21911 392.431 8.1978C392.267 8.17294 392.104 8.16051 391.941 8.16051C391.564 8.16051 391.229 8.24041 390.934 8.40021C390.643 8.55646 390.412 8.77486 390.241 9.0554C390.071 9.33239 389.986 9.64844 389.986 10.0036V15H388.393ZM397.158 15.1651C396.352 15.1651 395.658 14.9929 395.075 14.6484C394.496 14.3004 394.049 13.8121 393.733 13.1836C393.421 12.5515 393.264 11.8111 393.264 10.9624C393.264 10.1243 393.421 9.38565 393.733 8.74645C394.049 8.10724 394.489 7.60831 395.054 7.24964C395.622 6.89098 396.286 6.71165 397.046 6.71165C397.508 6.71165 397.955 6.788 398.389 6.9407C398.822 7.09339 399.211 7.3331 399.555 7.6598C399.9 7.98651 400.171 8.41087 400.37 8.93288C400.569 9.45135 400.668 10.0817 400.668 10.8239V11.3885H394.164V10.1953H399.108C399.108 9.77628 399.022 9.40518 398.852 9.08203C398.682 8.75533 398.442 8.49787 398.133 8.30966C397.827 8.12145 397.469 8.02734 397.057 8.02734C396.609 8.02734 396.219 8.13743 395.885 8.3576C395.555 8.57422 395.299 8.85831 395.118 9.20987C394.94 9.55788 394.852 9.93608 394.852 10.3445V11.2766C394.852 11.8235 394.947 12.2887 395.139 12.6722C395.335 13.0558 395.606 13.3487 395.954 13.5511C396.302 13.75 396.709 13.8494 397.174 13.8494C397.476 13.8494 397.751 13.8068 398 13.7216C398.248 13.6328 398.463 13.5014 398.644 13.3274C398.825 13.1534 398.964 12.9386 399.06 12.6829L400.567 12.9545C400.446 13.3984 400.23 13.7873 399.917 14.1211C399.608 14.4513 399.22 14.7088 398.751 14.8935C398.286 15.0746 397.755 15.1651 397.158 15.1651ZM408.342 8.8157L406.898 9.07138C406.838 8.88672 406.742 8.71094 406.61 8.54403C406.483 8.37713 406.309 8.24041 406.088 8.13388C405.868 8.02734 405.593 7.97408 405.263 7.97408C404.812 7.97408 404.435 8.07528 404.133 8.2777C403.832 8.47656 403.681 8.73402 403.681 9.05007C403.681 9.32351 403.782 9.54368 403.984 9.71058C404.187 9.87749 404.513 10.0142 404.964 10.1207L406.264 10.419C407.017 10.593 407.578 10.8612 407.947 11.2234C408.317 11.5856 408.501 12.0561 408.501 12.6349C408.501 13.125 408.359 13.5618 408.075 13.9453C407.795 14.3253 407.402 14.6236 406.898 14.8402C406.397 15.0568 405.817 15.1651 405.156 15.1651C404.24 15.1651 403.492 14.9698 402.914 14.5792C402.335 14.185 401.98 13.6257 401.848 12.9013L403.388 12.6669C403.484 13.0682 403.681 13.3718 403.979 13.5778C404.277 13.7802 404.666 13.8814 405.146 13.8814C405.668 13.8814 406.085 13.7731 406.397 13.5565C406.71 13.3363 406.866 13.0682 406.866 12.7521C406.866 12.4964 406.77 12.2816 406.578 12.1076C406.39 11.9336 406.101 11.8022 405.71 11.7134L404.325 11.4098C403.562 11.2358 402.997 10.9588 402.631 10.5788C402.269 10.1989 402.088 9.71768 402.088 9.1353C402.088 8.65234 402.223 8.22976 402.493 7.86754C402.763 7.50533 403.136 7.22301 403.611 7.0206C404.087 6.81463 404.632 6.71165 405.247 6.71165C406.131 6.71165 406.827 6.90341 407.335 7.28693C407.843 7.6669 408.178 8.17649 408.342 8.8157ZM413.554 15.1651C412.748 15.1651 412.053 14.9929 411.471 14.6484C410.892 14.3004 410.445 13.8121 410.129 13.1836C409.816 12.5515 409.66 11.8111 409.66 10.9624C409.66 10.1243 409.816 9.38565 410.129 8.74645C410.445 8.10724 410.885 7.60831 411.45 7.24964C412.018 6.89098 412.682 6.71165 413.442 6.71165C413.904 6.71165 414.351 6.788 414.784 6.9407C415.218 7.09339 415.606 7.3331 415.951 7.6598C416.295 7.98651 416.567 8.41087 416.766 8.93288C416.965 9.45135 417.064 10.0817 417.064 10.8239V11.3885H410.56V10.1953H415.503C415.503 9.77628 415.418 9.40518 415.248 9.08203C415.077 8.75533 414.838 8.49787 414.529 8.30966C414.223 8.12145 413.865 8.02734 413.453 8.02734C413.005 8.02734 412.615 8.13743 412.281 8.3576C411.95 8.57422 411.695 8.85831 411.514 9.20987C411.336 9.55788 411.247 9.93608 411.247 10.3445V11.2766C411.247 11.8235 411.343 12.2887 411.535 12.6722C411.73 13.0558 412.002 13.3487 412.35 13.5511C412.698 13.75 413.105 13.8494 413.57 13.8494C413.872 13.8494 414.147 13.8068 414.395 13.7216C414.644 13.6328 414.859 13.5014 415.04 13.3274C415.221 13.1534 415.36 12.9386 415.455 12.6829L416.963 12.9545C416.842 13.3984 416.626 13.7873 416.313 14.1211C416.004 14.4513 415.615 14.7088 415.146 14.8935C414.681 15.0746 414.15 15.1651 413.554 15.1651ZM418.606 15V6.81818H420.146V8.1179H420.231C420.38 7.67756 420.643 7.33132 421.019 7.07919C421.399 6.82351 421.829 6.69567 422.308 6.69567C422.408 6.69567 422.525 6.69922 422.66 6.70632C422.798 6.71342 422.907 6.7223 422.985 6.73295V8.25639C422.921 8.23864 422.807 8.21911 422.644 8.1978C422.481 8.17294 422.317 8.16051 422.154 8.16051C421.777 8.16051 421.442 8.24041 421.147 8.40021C420.856 8.55646 420.625 8.77486 420.455 9.0554C420.284 9.33239 420.199 9.64844 420.199 10.0036V15H418.606ZM431.386 6.81818L428.419 15H426.715L423.743 6.81818H425.452L427.525 13.1143H427.61L429.676 6.81818H431.386ZM435.906 15.1651C435.1 15.1651 434.406 14.9929 433.823 14.6484C433.245 14.3004 432.797 13.8121 432.481 13.1836C432.169 12.5515 432.012 11.8111 432.012 10.9624C432.012 10.1243 432.169 9.38565 432.481 8.74645C432.797 8.10724 433.237 7.60831 433.802 7.24964C434.37 6.89098 435.034 6.71165 435.794 6.71165C436.256 6.71165 436.703 6.788 437.137 6.9407C437.57 7.09339 437.959 7.3331 438.303 7.6598C438.648 7.98651 438.919 8.41087 439.118 8.93288C439.317 9.45135 439.416 10.0817 439.416 10.8239V11.3885H432.913V10.1953H437.856C437.856 9.77628 437.77 9.40518 437.6 9.08203C437.43 8.75533 437.19 8.49787 436.881 8.30966C436.576 8.12145 436.217 8.02734 435.805 8.02734C435.357 8.02734 434.967 8.13743 434.633 8.3576C434.303 8.57422 434.047 8.85831 433.866 9.20987C433.688 9.55788 433.6 9.93608 433.6 10.3445V11.2766C433.6 11.8235 433.696 12.2887 433.887 12.6722C434.083 13.0558 434.354 13.3487 434.702 13.5511C435.05 13.75 435.457 13.8494 435.922 13.8494C436.224 13.8494 436.499 13.8068 436.748 13.7216C436.996 13.6328 437.211 13.5014 437.392 13.3274C437.573 13.1534 437.712 12.9386 437.808 12.6829L439.315 12.9545C439.194 13.3984 438.978 13.7873 438.665 14.1211C438.356 14.4513 437.968 14.7088 437.499 14.8935C437.034 15.0746 436.503 15.1651 435.906 15.1651ZM444.021 15.1598C443.361 15.1598 442.771 14.9911 442.253 14.6538C441.738 14.3129 441.333 13.8281 441.038 13.1996C440.747 12.5675 440.602 11.8093 440.602 10.9251C440.602 10.0408 440.749 9.28445 441.044 8.65589C441.342 8.02734 441.75 7.54616 442.269 7.21236C442.787 6.87855 443.375 6.71165 444.032 6.71165C444.54 6.71165 444.948 6.79688 445.257 6.96733C445.57 7.13423 445.811 7.32955 445.982 7.55327C446.156 7.77699 446.291 7.97408 446.386 8.14453H446.482V4.09091H448.075V15H446.52V13.7269H446.386C446.291 13.9009 446.152 14.0998 445.971 14.3235C445.793 14.5472 445.548 14.7425 445.236 14.9094C444.923 15.0763 444.519 15.1598 444.021 15.1598ZM444.373 13.8015C444.831 13.8015 445.218 13.6808 445.534 13.4393C445.854 13.1942 446.095 12.8551 446.259 12.4219C446.426 11.9886 446.509 11.4844 446.509 10.9091C446.509 10.3409 446.427 9.84375 446.264 9.41761C446.101 8.99148 445.861 8.65945 445.545 8.42152C445.229 8.18359 444.838 8.06463 444.373 8.06463C443.894 8.06463 443.494 8.18892 443.174 8.4375C442.855 8.68608 442.613 9.02521 442.45 9.4549C442.29 9.88459 442.21 10.3693 442.21 10.9091C442.21 11.456 442.292 11.9478 442.455 12.3846C442.619 12.8214 442.86 13.1676 443.18 13.4233C443.503 13.6754 443.901 13.8015 444.373 13.8015Z" fill="white"/>
</svg>
